<mxfile host="app.diagrams.net" modified="2021-10-07T07:49:29.516Z" agent="5.0 (Windows NT 10.0; Win64; x64) AppleWebKit/537.36 (KHTML, like Gecko) Chrome/94.0.4606.71 Safari/537.36" etag="0s5O_F4sUn7pD4Loqq4f" version="15.4.3" type="github">
  <diagram id="ft-S6p3YyGh-OVdkdaEB" name="Page-1">
    <mxGraphModel dx="619" dy="322" grid="1" gridSize="10" guides="1" tooltips="1" connect="1" arrows="1" fold="1" page="1" pageScale="1" pageWidth="827" pageHeight="1169" math="0" shadow="0">
      <root>
        <mxCell id="0" />
        <mxCell id="1" parent="0" />
        <mxCell id="mtU_wtCQUZE5ZAFzhB16-1" value="" style="html=1;outlineConnect=0;whiteSpace=wrap;fillColor=#ffff99;verticalLabelPosition=bottom;verticalAlign=top;align=center;shape=mxgraph.archimate3.actor;" parent="1" vertex="1">
          <mxGeometry x="50" y="40" width="50" height="95" as="geometry" />
        </mxCell>
        <mxCell id="mtU_wtCQUZE5ZAFzhB16-2" value="" style="html=1;outlineConnect=0;whiteSpace=wrap;fillColor=#ffff99;shape=mxgraph.archimate3.application;appType=proc;archiType=rounded;" parent="1" vertex="1">
          <mxGeometry x="140" y="20" width="150" height="75" as="geometry" />
        </mxCell>
        <mxCell id="mtU_wtCQUZE5ZAFzhB16-3" value="&lt;p class=&quot;MsoNormal&quot; style=&quot;line-height: 110%&quot;&gt;&lt;span style=&quot;font-family: &amp;#34;times new roman&amp;#34; , serif&quot;&gt;Установка&lt;br/&gt;&lt;/span&gt;&lt;span lang=&quot;EN-US&quot; style=&quot;font-family: &amp;#34;times new roman&amp;#34; , serif&quot;&gt;ZIDK&lt;/span&gt;&lt;span style=&quot;font-family: &amp;#34;times new roman&amp;#34; , serif&quot;&gt;&lt;/span&gt;&lt;/p&gt;" style="html=1;outlineConnect=0;whiteSpace=wrap;fillColor=#FFE0E0;shape=mxgraph.archimate3.application;appType=event;archiType=rounded;" parent="1" vertex="1">
          <mxGeometry x="20" y="220" width="130" height="60" as="geometry" />
        </mxCell>
        <mxCell id="mtU_wtCQUZE5ZAFzhB16-4" value="&lt;span style=&quot;font-size: 11px; line-height: 107%; font-family: &amp;quot;times new roman&amp;quot;, serif;&quot;&gt;&lt;span style=&quot;font-size: 11px;&quot;&gt;Заказчик на базе своих данных&amp;nbsp;&lt;/span&gt;&lt;span style=&quot;font-size: 11px; line-height: 15.6933px;&quot;&gt;ищет в них закономерности, профит&lt;/span&gt;&lt;br style=&quot;font-size: 11px;&quot;&gt;&lt;/span&gt;" style="html=1;outlineConnect=0;whiteSpace=wrap;fillColor=#FFE0E0;shape=mxgraph.archimate3.application;appType=event;archiType=rounded;fontSize=11;" parent="1" vertex="1">
          <mxGeometry x="170" y="220" width="130" height="60" as="geometry" />
        </mxCell>
        <mxCell id="mtU_wtCQUZE5ZAFzhB16-5" value="&lt;p class=&quot;MsoNormal&quot; style=&quot;line-height: 110%&quot;&gt;&lt;span style=&quot;font-family: &amp;#34;times new roman&amp;#34; , serif&quot;&gt;Заведение&lt;br/&gt;потоков данных заказчика для анализа в &lt;/span&gt;&lt;span lang=&quot;EN-US&quot; style=&quot;font-family: &amp;#34;times new roman&amp;#34; , serif&quot;&gt;ZIIOT&lt;/span&gt;&lt;span style=&quot;font-family: &amp;#34;times new roman&amp;#34; , serif&quot;&gt;&lt;/span&gt;&lt;/p&gt;" style="html=1;outlineConnect=0;whiteSpace=wrap;fillColor=#FFE0E0;shape=mxgraph.archimate3.application;appType=event;archiType=rounded;" parent="1" vertex="1">
          <mxGeometry x="310" y="310" width="130" height="60" as="geometry" />
        </mxCell>
        <mxCell id="mtU_wtCQUZE5ZAFzhB16-6" value="&lt;p class=&quot;MsoNormal&quot; style=&quot;line-height: 110%&quot;&gt;&lt;span style=&quot;font-family: &amp;#34;times new roman&amp;#34; , serif&quot;&gt;Заказчик&lt;br/&gt;строит модель самостоятельно, берет готовую, заказывает разработку.&lt;/span&gt;&lt;/p&gt;" style="html=1;outlineConnect=0;whiteSpace=wrap;fillColor=#FFE0E0;shape=mxgraph.archimate3.application;appType=event;archiType=rounded;" parent="1" vertex="1">
          <mxGeometry x="460" y="220" width="130" height="60" as="geometry" />
        </mxCell>
        <mxCell id="mtU_wtCQUZE5ZAFzhB16-7" value="&lt;p class=&quot;MsoNormal&quot; style=&quot;line-height: 110%&quot;&gt;&lt;span style=&quot;font-family: &amp;#34;times new roman&amp;#34; , serif&quot;&gt;Оценка,&lt;br/&gt;Продакшн&lt;/span&gt;&lt;/p&gt;" style="html=1;outlineConnect=0;whiteSpace=wrap;fillColor=#FFE0E0;shape=mxgraph.archimate3.application;appType=event;archiType=rounded;" parent="1" vertex="1">
          <mxGeometry x="610" y="220" width="130" height="60" as="geometry" />
        </mxCell>
        <mxCell id="mtU_wtCQUZE5ZAFzhB16-9" style="edgeStyle=orthogonalEdgeStyle;rounded=0;orthogonalLoop=1;jettySize=auto;html=1;" parent="1" source="mtU_wtCQUZE5ZAFzhB16-8" target="mtU_wtCQUZE5ZAFzhB16-4" edge="1">
          <mxGeometry relative="1" as="geometry">
            <Array as="points">
              <mxPoint x="825" y="150" />
              <mxPoint x="235" y="150" />
            </Array>
          </mxGeometry>
        </mxCell>
        <mxCell id="mtU_wtCQUZE5ZAFzhB16-10" style="edgeStyle=orthogonalEdgeStyle;rounded=0;orthogonalLoop=1;jettySize=auto;html=1;" parent="1" source="mtU_wtCQUZE5ZAFzhB16-8" target="mtU_wtCQUZE5ZAFzhB16-6" edge="1">
          <mxGeometry relative="1" as="geometry">
            <Array as="points">
              <mxPoint x="825" y="180" />
              <mxPoint x="520" y="180" />
            </Array>
          </mxGeometry>
        </mxCell>
        <mxCell id="mtU_wtCQUZE5ZAFzhB16-8" value="&lt;p class=&quot;MsoNormal&quot; style=&quot;line-height: 110%&quot;&gt;&lt;span style=&quot;font-family: &amp;#34;times new roman&amp;#34; , serif&quot;&gt;Мониторинг,&lt;br/&gt;поддержка/корректировка модели&lt;/span&gt;&lt;/p&gt;" style="html=1;outlineConnect=0;whiteSpace=wrap;fillColor=#FFE0E0;shape=mxgraph.archimate3.application;appType=event;archiType=rounded;" parent="1" vertex="1">
          <mxGeometry x="760" y="220" width="130" height="60" as="geometry" />
        </mxCell>
        <mxCell id="-eSvkUpTJXsJWPYgSSkQ-1" value="Text" style="text;html=1;align=center;verticalAlign=middle;resizable=0;points=[];autosize=1;strokeColor=none;fillColor=none;" vertex="1" parent="1">
          <mxGeometry x="130" y="320" width="40" height="20" as="geometry" />
        </mxCell>
      </root>
    </mxGraphModel>
  </diagram>
</mxfile>
